<?xml version="1.0" encoding="utf-8"?>
<!-- Svg Vector Icons : http://www.onlinewebfonts.com/icon -->
<!DOCTYPE svg PUBLIC "-//W3C//DTD SVG 1.1//EN" "http://www.w3.org/Graphics/SVG/1.1/DTD/svg11.dtd">
<svg version="1.1" xmlns="http://www.w3.org/2000/svg" xmlns:xlink="http://www.w3.org/1999/xlink" x="0px" y="0px" width="12" viewBox="0 0 256 256" enable-background="new 0 0 256 256" xml:space="preserve">
<metadata> Svg Vector Icons : http://www.onlinewebfonts.com/icon </metadata>
<g><g><path fill="#000000" d="M137.6,222.8c-2.5,2.1-3.9,5.3-3.9,8.6v6.5h-7.6c0,0,0-1.7,0-4.7c0-2.5,0.5-5,1.4-7.3c2.1-5.5,2.5-11.4,2.5-12.4v-27.2c-0.7,0-1.3,0-1.9,0c-1.9,0-3.8,0-5.7-0.1v27.2c0,1.9-1.3,5.7-2.3,9.2c-0.2-0.2-1.1-0.4-1.4-0.6c-6.3-5.5-16.4-17.7-17.9-37.2c-35-4-63.2-15.6-78.8-31.7v43.5c0.5,27.2,47.7,49.3,106,49.3c58.3,0,105.5-22.1,106-49.3v-43.3c-15.6,16.1-43.9,27.7-78.9,31.7C153.5,205.9,143.6,217.6,137.6,222.8z"/><path fill="#000000" d="M22,58.3C22.3,31.5,68.8,9.9,126,10c57.2,0.1,103.3,21.9,103.1,48.7c-0.3,26.8-46.8,48.4-104,48.3C68.3,106.9,22.3,85.3,22,58.7V58.3L22,58.3z"/><path fill="#000000" d="M100.9,175.4c1.8-20.3,14.4-36.7,21.5-44.6V177c1.9,0,3.8,0.1,5.7,0.1c0.7,0,1.3,0,1.9,0v-50.5c3.7,3.4,23.9,20.1,25.4,48.9c45.1-5.6,78.3-24.8,78.7-47.6V84.3c-19.4,20-58.6,33.1-105.9,33.1c-47.4,0-86.5-13.1-106-33.2v43.5C22.4,150.6,55.7,169.8,100.9,175.4z"/></g></g>
</svg>